<svg xmlns="http://www.w3.org/2000/svg" viewBox="0 0 640 420" role="img" aria-label="Abstract illustration">
  <defs>
    <linearGradient id="bg" x1="0" y1="0" x2="1" y2="1">
      <stop offset="0" stop-color="#2c2119"/><stop offset="1" stop-color="#191512"/>
    </linearGradient>
    <radialGradient id="glow" cx="0.5" cy="0.35" r="0.7">
      <stop offset="0" stop-color="#d4a95c" stop-opacity="0.18"/><stop offset="1" stop-color="#d4a95c" stop-opacity="0"/>
    </radialGradient>
  </defs>
  <rect width="640" height="420" fill="url(#bg)"/>
  <rect width="640" height="420" fill="url(#glow)"/>
  <g fill="none" stroke="#d4a95c" stroke-width="2.5" stroke-linecap="round" opacity="0.85">
    <path d="M270 110 C 250 150, 250 175, 268 205 C 284 232, 284 250, 268 280 C 254 306, 256 330, 272 352"/>
    <path d="M370 110 C 390 150, 390 175, 372 205 C 356 232, 356 250, 372 280 C 386 306, 384 330, 368 352"/>
  </g>
  <g fill="#d4a95c" opacity="0.5">
    <circle cx="212" cy="140" r="3"/><circle cx="438" cy="188" r="4"/><circle cx="196" cy="300" r="4"/><circle cx="452" cy="320" r="3"/>
  </g>
  <rect x="250" y="378" width="140" height="3" rx="1.5" fill="#d4a95c" opacity="0.55"/>
</svg>
